PathFileType	4	(X/Y/Z)	PS_ngait_og_ss3.trc	
DataRate	CameraRate	NumFrames	NumMarkers	Units	OrigDataRate	OrigDataStartFrame	OrigNumFrames	
120.00	120.00	8	39	mm	120.00	594	130	
Frame#	Time	Sternum			Neck			RShoulder			LShoulder			Xiphoid			Thoracic			RAsis			LAsis			RPsis			LPsis			LThighSuperior			LThighInferior			LThighLateral			LShankSuperior			LShankInferior			LShankLateral			RThighSuperior			RThighInferior			RThighLateral			RShankSuperior			RShankInferior			RHeel			RToe			RMidfootMedial			RMidfootLateral			RHindfoot			RMidfootSuperior			RToeMedial			RToeLateral			LHeel			LToe			LMidfootMedial			LMidfootLateral			LHindfoot			LMidfootSuperior			LToeMedial			LToeLateral			Sacral			RShankLateral			
		X1	Y1	Z1	X2	Y2	Z2	X3	Y3	Z3	X4	Y4	Z4	X5	Y5	Z5	X6	Y6	Z6	X7	Y7	Z7	X8	Y8	Z8	X9	Y9	Z9	X10	Y10	Z10	X11	Y11	Z11	X12	Y12	Z12	X13	Y13	Z13	X14	Y14	Z14	X15	Y15	Z15	X16	Y16	Z16	X17	Y17	Z17	X18	Y18	Z18	X19	Y19	Z19	X20	Y20	Z20	X21	Y21	Z21	X22	Y22	Z22	X23	Y23	Z23	X24	Y24	Z24	X25	Y25	Z25	X26	Y26	Z26	X27	Y27	Z27	X28	Y28	Z28	X29	Y29	Z29	X30	Y30	Z30	X31	Y31	Z31	X32	Y32	Z32	X33	Y33	Z33	X34	Y34	Z34	X35	Y35	Z35	X36	Y36	Z36	X37	Y37	Z37	X38	Y38	Z38	X39	Y39	Z39	

82	0.675	913.80255	1427.08032	259.10977	749.82983	1522.32227	275.61172	801.29321	1499.24585	430.65677	773.50830	1522.78967	135.61790	949.94904	1266.15503	253.51936	672.49823	1303.14380	272.88602	875.98425	998.42133	384.10455	862.62408	994.55005	110.23409	682.39630	1024.90479	314.42398	671.04816	1016.76849	210.77310	785.03033	815.71570	66.81682	775.15948	582.07861	96.66044	866.74030	678.33929	135.81598	656.04071	377.01010	96.08835	537.41266	231.89864	137.54047	636.73718	282.01031	169.63602	854.59924	808.53528	431.37454	928.73199	584.20111	404.88403	965.53192	751.27692	365.85486	937.37671	425.98019	408.23712	968.70239	175.88161	364.28500	897.10980	64.94549	300.84207	1210.45996	57.49753	337.06204	1117.17920	38.71033	278.24963	1105.81067	31.80354	393.60699	1055.06055	32.30315	381.37747	1076.21423	97.61684	328.59259	1161.29810	42.83038	285.54514	1155.04346	40.00209	388.79919	390.51215	169.30743	199.12799	656.60284	41.48632	154.69841	564.99982	43.84771	217.65738	547.89807	39.81016	101.02843	504.65463	61.45830	116.80058	569.25085	108.20031	165.50505	601.59137	34.15979	210.96529	591.58661	38.59497	107.52606	676.72223	1020.83661	262.59854	1011.06049	309.41370	331.85437 
83	0.683	922.46930	1428.23120	260.62018	758.75269	1523.25378	277.92883	810.58350	1499.78149	432.49631	782.09167	1523.80212	137.30624	958.34937	1266.84229	254.63759	680.93774	1304.08301	274.91391	884.77533	1000.41296	386.06674	871.74597	995.05182	112.24966	691.06641	1025.58276	316.22842	679.81067	1016.93939	212.18007	797.56934	815.43567	68.23309	792.24792	581.86877	95.50156	881.41748	679.81543	135.95346	661.75586	380.22626	94.73911	548.93115	239.38673	136.76239	649.37366	285.90790	167.99249	862.57434	809.22150	433.45349	936.92426	584.65149	406.70047	973.16217	752.56842	366.39133	943.36108	426.51093	409.52771	970.62811	175.88400	364.72986	897.22284	65.03304	300.83615	1210.77026	56.48364	336.74564	1117.42773	38.05241	278.10168	1106.22900	31.60157	393.84012	1054.48926	31.94480	381.20184	1076.74939	97.33758	328.22791	1161.49353	41.92941	285.30649	1155.28772	39.47099	388.57294	402.35928	184.07350	198.26877	658.05597	38.70421	153.84866	567.92072	47.24821	217.41574	550.18628	43.02610	101.13528	508.63931	67.77643	116.59159	576.45752	110.59988	164.38690	603.32819	35.32068	210.76375	592.46484	39.30567	107.39283	685.43854	1021.26111	264.20425	1014.67401	308.66919	332.53171 
84	0.692	931.12646	1429.39209	261.94165	767.70990	1524.39612	279.77713	819.75464	1500.49988	434.00446	790.51709	1525.00232	138.78357	966.66071	1267.61743	255.87596	689.18011	1305.16040	276.78595	893.13623	1002.09302	387.82623	880.78296	995.47986	114.36145	699.40717	1026.16455	317.64816	688.48273	1017.26923	213.61377	809.75983	815.76733	69.34231	809.49780	582.03186	94.37852	896.65826	681.65967	136.16292	668.48987	384.37527	93.56838	562.37653	245.93082	135.85779	663.93719	288.86145	166.22250	870.26038	810.00671	435.66479	943.85022	584.88446	408.20395	980.83063	753.71405	367.44644	948.44000	426.51801	410.53549	972.22198	175.64818	364.91153	897.41003	64.96309	300.92160	1211.23157	55.32469	336.46353	1117.68237	37.52177	278.04953	1106.29895	31.30464	393.87872	1054.23035	31.60972	381.18558	1077.51953	97.21139	328.10938	1161.74878	41.05913	285.14145	1155.71191	38.84613	388.42346	415.70703	199.26991	197.48650	660.83521	35.15639	153.04024	571.69281	51.61469	217.00426	553.47266	47.41718	101.46053	514.00079	74.96706	116.86947	584.68298	113.93224	163.44730	606.27032	36.79507	210.18823	595.28717	40.39747	106.81592	693.94495	1021.71692	265.63098	1018.25659	308.00732	333.51434 
85	0.700	939.66803	1430.53503	263.21820	776.42279	1525.39148	281.62833	828.74713	1501.41516	435.38782	798.91412	1526.17822	140.20154	974.97180	1268.58264	257.04828	697.35297	1306.17773	278.43549	901.44159	1003.60742	389.63293	889.68115	996.22253	116.41634	707.69702	1026.70593	319.16846	697.05048	1017.64423	215.10843	821.87524	816.38550	70.46047	826.75031	582.46948	93.29325	911.51685	683.61713	136.01543	675.73639	389.55374	92.26807	576.39459	252.75552	135.27951	679.07330	292.09564	164.77881	877.70728	810.90039	437.94336	949.74402	585.06738	409.55228	988.28955	754.38904	368.70926	952.79059	426.48254	411.53000	973.39233	175.33188	364.97058	897.46863	65.00826	300.91434	1211.16406	54.25621	336.08298	1117.90552	37.05787	277.87274	1106.57861	31.08254	393.99139	1055.00537	31.79727	381.45654	1077.73169	97.00087	327.60367	1161.61731	40.24873	284.75159	1155.51038	38.20367	388.03296	430.64789	214.45723	197.06664	663.85840	30.78161	151.80855	576.63751	56.68573	216.21252	557.66602	52.78941	101.62970	519.35748	83.49722	116.68978	593.42108	118.29411	162.37810	610.00757	38.39856	209.14937	598.87390	41.70869	105.78339	702.37372	1022.17505	267.13843	1021.10266	306.92636	334.19025 
86	0.708	948.04980	1431.64417	264.33633	784.88202	1526.47107	283.13474	837.47748	1502.36621	436.67502	807.24127	1527.23706	141.54198	983.15302	1269.54041	258.31607	705.55750	1307.12756	280.06830	909.80743	1005.14459	391.63596	898.53723	997.29633	118.43576	716.03558	1027.29797	320.94330	705.54144	1017.97168	216.57315	833.87396	817.24780	71.70040	843.87549	583.30670	92.21946	926.39453	685.68750	135.65950	683.40680	394.95456	91.12100	590.54816	259.46140	134.31972	694.42303	296.66046	163.78127	884.95422	811.90009	440.22263	954.84973	585.09796	410.81561	995.32080	753.82611	370.13861	956.42480	426.12283	412.30923	974.34821	175.02695	364.93149	897.45441	65.21990	300.93188	1211.57593	53.82112	335.93790	1118.02600	36.67533	277.70627	1106.76440	30.93068	394.14896	1054.30579	31.52996	381.36429	1078.22864	96.83598	327.48572	1161.95764	39.82336	284.67300	1155.93018	37.98590	387.96292	447.15131	229.81596	196.85582	666.77631	26.63256	150.63948	583.21320	62.59372	215.49724	562.81207	58.35274	102.30144	526.57281	92.07627	117.13142	602.58295	122.87833	161.46216	614.66803	40.80677	208.34325	602.67242	43.14728	105.04723	710.78851	1022.63483	268.75821	1023.91199	305.81665	334.89783 
87	0.717	956.23047	1432.68237	265.30399	793.16101	1527.54236	284.34464	846.35992	1503.59253	437.82202	815.33124	1528.28284	142.74237	991.28058	1270.62134	259.57635	713.61932	1308.14661	281.40607	918.05231	1006.67926	393.50583	907.34601	998.14789	120.45654	724.29358	1027.85938	322.48001	714.03137	1018.36176	218.06128	846.13428	817.84564	73.22520	860.70349	584.49969	91.28670	940.96228	688.02582	135.23105	691.67963	400.48682	90.15588	604.95813	266.38477	133.36938	709.55737	301.19226	162.51167	892.02350	812.98743	442.43753	959.37982	584.94049	412.07285	1002.67932	753.69537	373.37708	959.78424	425.87708	413.02051	975.18750	174.78101	365.07889	897.60913	65.29939	301.06497	1211.76355	53.38399	335.91925	1118.10461	36.47054	277.58029	1106.81982	30.80682	394.25851	1054.04236	31.21502	381.32959	1078.54639	96.78150	327.37271	1162.13513	39.51096	284.63028	1156.04163	37.72913	387.91733	464.05176	244.39099	197.05618	669.79553	23.37695	149.97556	590.47028	68.96377	215.09845	568.06226	64.53552	103.43518	533.91101	102.35970	117.13610	612.34747	127.59392	160.72816	619.98529	43.83376	207.82327	607.06720	45.02489	104.61889	719.16248	1023.11053	270.27063	1026.83484	305.45132	336.10233 
88	0.725	964.31561	1433.80457	266.21210	801.10754	1528.54321	285.48682	854.95770	1504.89685	438.90665	823.38214	1529.33508	143.95062	999.41992	1271.70068	260.72665	721.75232	1309.16248	282.61813	926.01471	1007.83118	395.33862	915.60559	998.47064	122.50636	732.29449	1028.58337	324.08136	722.13013	1018.94000	219.73817	857.39270	819.10651	74.01255	877.15704	585.95410	90.62893	955.45819	690.75153	134.91136	700.95551	406.51062	89.27065	619.69745	272.81744	133.14468	724.57062	305.45386	161.69223	898.91437	814.12354	444.52789	963.70142	584.67560	413.32318	1009.72180	752.87988	375.92892	962.37128	425.90265	414.25717	975.98889	174.62386	365.22787	897.71271	65.36171	301.18481	1211.84119	52.79815	335.84702	1118.16028	36.45318	277.57098	1106.87451	30.68992	394.46115	1054.03284	31.16277	381.40002	1078.84497	96.88792	327.40195	1162.12488	39.24465	284.55774	1156.05750	37.36260	387.84451	479.73099	255.56436	198.37912	674.24835	21.17921	149.39592	598.86078	74.81045	214.59998	576.42023	70.66171	104.45654	542.67871	111.30083	117.35566	623.11475	132.80109	160.07405	626.63263	46.68515	207.08556	613.47552	47.60400	103.90859	727.21234	1023.76166	271.90976	1029.54175	305.48462	337.34772 
89	0.733	972.32343	1435.00842	267.18176	808.89832	1529.51440	286.46741	863.37762	1506.26672	439.90002	831.22363	1530.29688	144.97997	1007.46234	1272.96008	261.96613	729.77985	1310.16931	283.70996	934.01764	1009.86163	397.09860	925.03894	999.71967	124.16633	740.49792	1028.99377	324.85577	731.16296	1019.76367	220.68275	868.31390	821.09735	74.41973	893.32721	587.49512	90.07904	969.86993	693.71722	134.73978	711.60950	413.44415	88.31290	633.95093	279.62772	133.10052	739.57111	310.39243	160.82800	905.54956	815.21698	446.41782	967.84515	584.58759	414.64200	1016.49298	752.14838	378.42532	965.39948	425.85370	415.19229	977.03564	174.61012	365.53040	897.76849	65.61455	301.30917	1212.20789	52.70222	336.04065	1118.26941	36.49435	277.56839	1106.92065	30.70805	394.28549	1054.01233	31.08496	381.41388	1079.28931	97.01939	327.56488	1162.48718	39.25233	284.72830	1156.37964	37.34068	388.01218	494.90634	263.98486	200.14967	683.21729	23.09022	147.37160	610.01184	79.97034	213.77841	587.35303	77.27260	104.07417	553.84808	119.21710	117.29038	635.26038	138.91805	159.34741	637.03650	50.28287	205.45599	623.44385	52.43718	102.35391	735.83044	1024.37866	272.76926	1032.27881	305.46921	338.75549 
